inDegrees=no
num_controls=7
num_derivatives=13
num_iterations=93
num_multipliers=7
num_parameters=0
num_slacks=7
num_states=26
objective=0.469835
objective_accelerations=0.065628
objective_balance=0.002172
objective_effort=0.020622
objective_height=0.371941
objective_ligament=0.009472
solver_duration=1284.920079
status=Solve_Succeeded
success=true
DataType=double
version=3
OpenSimVersion=4.5
endheader
time	/jointset/ground_pelvis/pelvis_tilt/value	/jointset/ground_pelvis/pelvis_tx/value	/jointset/ground_pelvis/pelvis_ty/value	/jointset/hip_l/hip_flexion_l/value	/jointset/hip_l/hip_adduction_l/value	/jointset/hip_l/hip_rotation_l/value	/jointset/back/lumbar_extension/value	/jointset/patellofemoral_l/patellar_flexion_l/value	/jointset/knee_l/knee_flexion_l/value	/jointset/knee_l/knee_adduction_l/value	/jointset/knee_l/knee_rotation_l/value	/jointset/ankle_l/ankle_angle_l/value	/jointset/subtalar_l/subtalar_angle_l/value	/jointset/ground_pelvis/pelvis_tilt/speed	/jointset/ground_pelvis/pelvis_tx/speed	/jointset/ground_pelvis/pelvis_ty/speed	/jointset/hip_l/hip_flexion_l/speed	/jointset/hip_l/hip_adduction_l/speed	/jointset/hip_l/hip_rotation_l/speed	/jointset/back/lumbar_extension/speed	/jointset/patellofemoral_l/patellar_flexion_l/speed	/jointset/knee_l/knee_flexion_l/speed	/jointset/knee_l/knee_adduction_l/speed	/jointset/knee_l/knee_rotation_l/speed	/jointset/ankle_l/ankle_angle_l/speed	/jointset/subtalar_l/subtalar_angle_l/speed	/forceset/tau_hip_flexion_l	/forceset/tau_hip_adduction_l	/forceset/tau_hip_rotation_l	/forceset/tau_knee_flexion_l	/forceset/tau_ankle_angle_l	/forceset/tau_subtalar_angle_l	/forceset/tau_lumbar_extension	lambda_cid13_p0	lambda_cid13_p1	lambda_cid13_p2	lambda_cid13_p3	lambda_cid13_p4	lambda_cid13_p5	lambda_cid14_p0	/jointset/ground_pelvis/pelvis_tilt/accel	/jointset/ground_pelvis/pelvis_tx/accel	/jointset/ground_pelvis/pelvis_ty/accel	/jointset/hip_l/hip_flexion_l/accel	/jointset/hip_l/hip_adduction_l/accel	/jointset/hip_l/hip_rotation_l/accel	/jointset/back/lumbar_extension/accel	/jointset/patellofemoral_l/patellar_flexion_l/accel	/jointset/knee_l/knee_flexion_l/accel	/jointset/knee_l/knee_adduction_l/accel	/jointset/knee_l/knee_rotation_l/accel	/jointset/ankle_l/ankle_angle_l/accel	/jointset/subtalar_l/subtalar_angle_l/accel	gamma_cid13_p0	gamma_cid13_p1	gamma_cid13_p2	gamma_cid13_p3	gamma_cid13_p4	gamma_cid13_p5	gamma_cid14_p0
0.5	-0.4169854828527857	-0.06869866946639425	0.772315040787068	1.201599796428925	-0.3520882670674226	-0.06084196629715673	-0.4086062325638139	0.7265289825683947	0.7265289825682825	-0.0507458856314109	-0.1744578616846755	0.04818060741768813	0.08348102452661688	-1.303685626084257	-0.4089551606968298	-0.5179889587591439	2.925653930163773	0.04596823786989049	0.4467154245281731	-0.2844046792632532	1.390183790233565	1.390183790233657	0.21625885435454	0.001442470440505394	-0.1277895399498396	0.004311642902199466	-0.167114532783421	0.008469868518626304	0.004648802666040237	-0.146837473017532	0.1003714759885458	0.003486003828712702	0.1512711981454907	7.290465909230038	-1.840301172003814	-1.072947726733529	-8.758599153574833	-434.6651460149891	-61.03744387785167	-14.09783090683587	0.5935325880129178	0.7353549983905687	-0.4106249706629377	-1.739901191427193	0.1378254875624133	-0.3829891465886154	1.625418163725212	-0.990799991355526	-0.9907999913555654	-0.3698383494295193	0.07335792022672204	0.03833177299111411	0.1582728191697654	1.416612992341978e-08	-1.486485480529396e-06	-8.89614781490214e-07	-3.309864446077152e-07	-2.099348546502792e-07	1.986706808623934e-07	-1.57237729829429e-07
0.51	-0.429990013267251	-0.07275083641628995	0.7671159369643297	1.230763927436845	-0.3516226945591572	-0.05639792872434184	-0.411370063747221	0.7403789206992707	0.7403789206992549	-0.0486017037981236	-0.1744434144687169	0.04690455807657719	0.08353102494410558	-1.2970537275155	-0.4014247286424104	-0.5217094927393756	2.906764681039938	0.04711926861229258	0.4420845823992874	-0.2683587246685633	1.379587632004064	1.379587632004114	0.2125080031727762	0.001466503759444756	-0.1274115141597046	0.005662423686328914	-0.1738090688119871	0.009051273869981977	0.004119354862445876	-0.1476172402231156	0.1027742956481813	0.004213707108120505	0.1559565728280318	7.905971416390633	-2.10285403720769	-1.215286167291413	-9.308192591573869	-438.4389564774916	-61.18764401901992	-13.52947987279444	0.7230038994785469	0.7698439826199363	-0.3344571520230433	-2.024599927067321	0.1000571838920791	-0.5043509965162142	1.594609019476599	-1.126425269571478	-1.126425269578182	-0.3884747281866165	-0.03026980297051054	0.03879661395840448	0.1199299020149095	-2.414680526764581e-08	-1.188376933740292e-06	-4.102274047133079e-07	-2.557895229114185e-07	-2.586222306859494e-07	2.8119922428754e-07	-1.784990987192834e-07
0.52	-0.4429232276143557	-0.07672610771091132	0.7618832898937247	1.259726933322711	-0.3511463486802007	-0.05200044342289525	-0.4139733504022465	0.7541164169416837	0.7541164169417547	-0.04649718372183757	-0.1744281660876977	0.045632540719756	0.08359382300823143	-1.28942241261997	-0.3935760296419635	-0.5246976083322699	2.88542890574784	0.04812291200718059	0.437404970251312	-0.2522957735884682	1.367695412541615	1.367695412541622	0.208326502965549	0.001602703450461958	-0.1269831430922065	0.006871172229677286	-0.1805036048405114	0.00963267922143457	0.003589907058761635	-0.1483970074286332	0.1051771153078724	0.004941410387648051	0.1606419475105864	8.52050937947207	-2.364773128454823	-1.358256603697592	-9.855426142686566	-442.2270318655962	-61.35009136521212	-12.96398594151549	0.7934158533667616	0.7990083875962602	-0.2641412931953699	-2.229206425079826	0.1083480180595418	-0.3927431504066195	1.628817460806059	-1.250012237945256	-1.250012237945322	-0.4559681545222958	0.095791194642203	0.04840082846402579	0.1298663710135664	-1.234222259138801e-07	-5.889901080667934e-07	7.410309905427996e-07	-8.137745199249727e-08	-4.124424564538153e-07	4.731511976731458e-07	-2.455778346832621e-07
0.53	-0.4557749666902953	-0.08062145783782863	0.7566244274384208	1.28846442656282	-0.3506612176520743	-0.04764772739138916	-0.4164161043351999	0.7677286842033753	0.7677286842035318	-0.04443880109861303	-0.1744097739386195	0.0443648740628345	0.08366737733944486	-1.280745375405361	-0.385457625029243	-0.5269519727915962	2.861686705635131	0.04891930394448836	0.4328424718372186	-0.2362651292367491	1.354575669953027	1.354575669953022	0.2035433013025455	0.001896857689375638	-0.126530503606158	0.007866020031048476	-0.1875568766311547	0.0102617758959516	0.003006493146866374	-0.14849460967662	0.1064459953962096	0.005758259855209218	0.1654806924047957	8.768663266452108	-2.634295320549756	-1.462277211336556	-10.04594707003142	-446.0444697869932	-61.47853806281947	-12.40157644045744	0.9318147131892297	0.8237141519221418	-0.1877461790912998	-2.504229054932284	0.06760332236763307	-0.5326139331903064	1.588670486949812	-1.370254584087091	-1.370254584089185	-0.4605389391477143	-0.03032101441811989	0.04663976409898031	0.08812753151562654	-1.731678177600114e-07	-1.949648172228264e-07	1.389846454282848e-06	2.34990546897716e-08	-4.836546460833778e-07	5.748876120987004e-07	-2.716925290237933e-07
0.54	-0.4685345419825104	-0.08443453238785677	0.7513466889071655	1.316952997351714	-0.350167658996409	-0.04334955849326708	-0.4186988553117096	0.781204294176264	0.7812042941764128	-0.04242245904559055	-0.1743937499576582	0.04310232265185964	0.0837516468580351	-1.27098965588359	-0.3771209142641302	-0.528472823522379	2.835644415499739	0.04980843751381397	0.4264955435719648	-0.2202951823012526	1.3403639547736	1.340363954773584	0.1999183889612197	0.001129069810921839	-0.1259600939031456	0.009014209705092863	-0.1946101484217969	0.01089087257054609	0.002423079234311748	-0.1485922119245348	0.1077148754846071	0.006575109322878034	0.1703194372989814	9.017320173787308	-2.904896902585566	-1.564993316489356	-10.25692236580912	-449.8632186415954	-61.66639787516864	-11.84276842615535	1.009152314798764	0.8426696180748338	-0.1174385474866269	-2.68922442961652	0.1268963444630515	-0.7496291206387437	1.616677977561373	-1.468406756112783	-1.468406756112761	-0.2243102901868092	-0.1165972288313639	0.07195487185704282	0.1605347455482141	-1.68114450082624e-07	-2.814803299876863e-08	1.482767610813633e-06	5.144259668467954e-08	-4.634707106237527e-07	5.768110676748352e-07	-2.524853049724247e-07
0.55	-0.48119180009696	-0.08816323353146759	0.7460574206043233	1.345170075899183	-0.3496654159269224	-0.03911794140873041	-0.4208222232110881	0.794531880821605	0.794531880821593	-0.04044129500275661	-0.1743865636948054	0.04184563559123099	0.0838472598996876	-1.260334128094744	-0.3685904980212541	-0.5292539356120661	2.807408310923746	0.05057816288317933	0.4200378117182347	-0.2044028631643721	1.324918709806356	1.324918709806325	0.1960408896219627	0.0004600303591244235	-0.1254046463256585	0.01003242932366555	-0.2011640208796185	0.01119628668090433	0.001920894227771213	-0.1493946916856051	0.1098335444928876	0.007111415006829236	0.1747438870460665	9.518023285754504	-3.071805300676055	-1.713921945621093	-10.56776394171195	-453.7103894524327	-61.74676448407903	-11.28815743855884	1.112896311233389	0.8625634300456926	-0.03950281683818939	-2.945292918397629	0.0425462446094142	-0.5625704677199793	1.571839043121251	-1.617734638514314	-1.617734638516817	-0.5104616581131163	-0.018975223986858	0.04324853741868973	0.06087881080779904	-1.656091072379243e-07	6.444476123644287e-08	1.53765327307009e-06	6.788303714939021e-08	-4.365340947604582e-07	5.913947698534995e-07	-2.430933472094954e-07
0.5600000000000001	-0.4937386742734207	-0.09180576335211967	0.7407641301251582	1.373093895511553	-0.3491573684814481	-0.03494464669272868	-0.4227874018868163	0.8076979847629822	0.8076979847627909	-0.03850710433378846	-0.1743814514105912	0.04059368477372387	0.08395073778568474	-1.248912868293736	-0.359886649672384	-0.5292772587867649	2.77699262847544	0.05096931270997485	0.4148310698653257	-0.1886573375727169	1.308067413979769	1.308067413979724	0.1905237141899898	0.0007142740820104527	-0.1250128452791939	0.01058717857408055	-0.2077178933374412	0.01150170079127656	0.001418709221242088	-0.1501971714466273	0.1119522135011996	0.007647720690805706	0.1791683367931422	10.01821884405414	-3.240146144875004	-1.860883664255204	-10.90008782965707	-457.5782267790026	-61.88857905013516	-10.73829511371056	1.162298717230506	0.8773560392736837	0.03411923551103393	-3.125140004079277	0.05118123594906766	-0.499431120474554	1.587319268516176	-1.749616927981153	-1.749616927981044	-0.5522455087300562	0.0680594061052729	0.03922556565266871	0.0678406719166734	-1.661613941924498e-07	6.79687674850418e-08	1.546896342197357e-06	7.05197557778646e-08	-4.014942624127608e-07	6.211707679551987e-07	-2.454797089926929e-07
